<?xml version="1.0" encoding="UTF-8" standalone="no"?>
<!DOCTYPE svg PUBLIC "-//W3C//DTD SVG 1.1//EN"
 "http://www.w3.org/Graphics/SVG/1.1/DTD/svg11.dtd">
<!-- Generated by graphviz version 2.40.1 (20161225.0304)
 -->
<!-- Title: %0 Pages: 1 -->
<svg width="376pt" height="288pt"
 viewBox="0.00 0.00 376.00 288.00" xmlns="http://www.w3.org/2000/svg" xmlns:xlink="http://www.w3.org/1999/xlink">
<g id="graph0" class="graph" transform="scale(1 1) rotate(0) translate(4 284)">
<title>%0</title>
<polygon fill="#ffffff" stroke="transparent" points="-4,4 -4,-284 372,-284 372,4 -4,4"/>
<!-- hashmap -->
<g id="node1" class="node">
<title>hashmap</title>
<polyline fill="none" stroke="#000000" points="8.5,-184 69.5,-184 "/>
<text text-anchor="start" x="11.7875" y="-190.4" font-family="Times,serif" font-size="14.00" fill="#000000">HashMap</text>
<polygon fill="none" stroke="#000000" points="8.5,-162 8.5,-184 56.5,-184 56.5,-162 8.5,-162"/>
<text text-anchor="start" x="11.1178" y="-168.4" font-family="Times,serif" font-size="14.00" fill="#000000">buckets</text>
<polygon fill="none" stroke="#000000" points="56.5,-162 56.5,-184 69.5,-184 69.5,-162 56.5,-162"/>
<polygon fill="none" stroke="#000000" points="8.5,-140 8.5,-162 56.5,-162 56.5,-140 8.5,-140"/>
<text text-anchor="start" x="23.9474" y="-146.4" font-family="Times,serif" font-size="14.00" fill="#000000">len</text>
<polygon fill="none" stroke="#000000" points="56.5,-140 56.5,-162 69.5,-162 69.5,-140 56.5,-140"/>
<text text-anchor="start" x="59.5" y="-146.4" font-family="Times,serif" font-size="14.00" fill="#000000">4</text>
</g>
<!-- buckets -->
<g id="node2" class="node">
<title>buckets</title>
<polyline fill="none" stroke="#000000" points="121.5,-184 204.5,-184 "/>
<text text-anchor="start" x="124.0093" y="-190.4" font-family="Times,serif" font-size="14.00" fill="#000000">Vec&lt;Bucket&gt;</text>
<polygon fill="none" stroke="#000000" points="121.5,-162 121.5,-184 170.5,-184 170.5,-162 121.5,-162"/>
<text text-anchor="start" x="130.4474" y="-168.4" font-family="Times,serif" font-size="14.00" fill="#000000">index</text>
<polygon fill="none" stroke="#000000" points="170.5,-162 170.5,-184 204.5,-184 204.5,-162 170.5,-162"/>
<text text-anchor="start" x="179.7244" y="-168.4" font-family="Times,serif" font-size="14.00" fill="#000000">ptr</text>
<polygon fill="none" stroke="#000000" points="121.5,-140 121.5,-162 170.5,-162 170.5,-140 121.5,-140"/>
<text text-anchor="start" x="142.5" y="-146.4" font-family="Times,serif" font-size="14.00" fill="#000000">0</text>
<polygon fill="none" stroke="#000000" points="170.5,-140 170.5,-162 204.5,-162 204.5,-140 170.5,-140"/>
<polygon fill="none" stroke="#000000" points="121.5,-118 121.5,-140 170.5,-140 170.5,-118 121.5,-118"/>
<text text-anchor="start" x="142.5" y="-124.4" font-family="Times,serif" font-size="14.00" fill="#000000">1</text>
<polygon fill="none" stroke="#000000" points="170.5,-118 170.5,-140 204.5,-140 204.5,-118 170.5,-118"/>
<polygon fill="none" stroke="#000000" points="121.5,-96 121.5,-118 170.5,-118 170.5,-96 121.5,-96"/>
<text text-anchor="start" x="142.5" y="-102.4" font-family="Times,serif" font-size="14.00" fill="#000000">2</text>
<polygon fill="none" stroke="#000000" points="170.5,-96 170.5,-118 204.5,-118 204.5,-96 170.5,-96"/>
<polygon fill="none" stroke="#000000" points="121.5,-74 121.5,-96 170.5,-96 170.5,-74 121.5,-74"/>
<text text-anchor="start" x="142.5" y="-80.4" font-family="Times,serif" font-size="14.00" fill="#000000">3</text>
<polygon fill="none" stroke="#000000" points="170.5,-74 170.5,-96 204.5,-96 204.5,-74 170.5,-74"/>
</g>
<!-- hashmap&#45;&gt;buckets -->
<g id="edge1" class="edge">
<title>hashmap:c&#45;&gt;buckets:from_hashmap</title>
<path fill="none" stroke="#000000" d="M63.5,-173C63.5,-173 87.9504,-173 111.2928,-173"/>
<polygon fill="#000000" stroke="#000000" points="111.5,-176.5001 121.5,-173 111.5,-169.5001 111.5,-176.5001"/>
</g>
<!-- vec0 -->
<g id="node3" class="node">
<title>vec0</title>
<polyline fill="none" stroke="#000000" points="256,-254 360,-254 "/>
<text text-anchor="start" x="266.6706" y="-260.4" font-family="Times,serif" font-size="14.00" fill="#000000">Bucket&lt;K, V&gt;</text>
<polygon fill="none" stroke="#000000" points="256,-232 256,-254 293,-254 293,-232 256,-232"/>
<text text-anchor="start" x="258.9474" y="-238.4" font-family="Times,serif" font-size="14.00" fill="#000000">index</text>
<polygon fill="none" stroke="#000000" points="293,-232 293,-254 360,-254 360,-232 293,-232"/>
<text text-anchor="start" x="315.6171" y="-238.4" font-family="Times,serif" font-size="14.00" fill="#000000">pair</text>
<polygon fill="none" stroke="#000000" points="256,-210 256,-232 293,-232 293,-210 256,-210"/>
<text text-anchor="start" x="271" y="-216.4" font-family="Times,serif" font-size="14.00" fill="#000000">0</text>
<polygon fill="none" stroke="#000000" points="293,-210 293,-232 360,-232 360,-210 293,-210"/>
<text text-anchor="start" x="297.7251" y="-216.4" font-family="Times,serif" font-size="14.00" fill="#000000">John, blue</text>
<polygon fill="none" stroke="#000000" points="256,-188 256,-210 293,-210 293,-188 256,-188"/>
<text text-anchor="start" x="271" y="-194.4" font-family="Times,serif" font-size="14.00" fill="#000000">1</text>
<polygon fill="none" stroke="#000000" points="293,-188 293,-210 360,-210 360,-188 293,-188"/>
<text text-anchor="start" x="295.7868" y="-194.4" font-family="Times,serif" font-size="14.00" fill="#000000">Bob, green</text>
</g>
<!-- buckets&#45;&gt;vec0 -->
<g id="edge2" class="edge">
<title>buckets:c&#45;&gt;vec0:from_buckets</title>
<path fill="none" stroke="#000000" d="M187.5,-151C187.5,-151 202.7082,-230.8518 246.0094,-241.769"/>
<polygon fill="#000000" stroke="#000000" points="245.647,-245.2508 256,-243 246.5031,-238.3033 245.647,-245.2508"/>
</g>
<!-- vec1 -->
<g id="node4" class="node">
<title>vec1</title>
<polyline fill="none" stroke="#000000" points="259,-140 357,-140 "/>
<text text-anchor="start" x="266.6706" y="-146.4" font-family="Times,serif" font-size="14.00" fill="#000000">Bucket&lt;K, V&gt;</text>
<polygon fill="none" stroke="#000000" points="259,-118 259,-140 296,-140 296,-118 259,-118"/>
<text text-anchor="start" x="261.9474" y="-124.4" font-family="Times,serif" font-size="14.00" fill="#000000">index</text>
<polygon fill="none" stroke="#000000" points="296,-118 296,-140 357,-140 357,-118 296,-118"/>
<text text-anchor="start" x="315.6171" y="-124.4" font-family="Times,serif" font-size="14.00" fill="#000000">pair</text>
<polygon fill="none" stroke="#000000" points="259,-96 259,-118 296,-118 296,-96 259,-96"/>
<text text-anchor="start" x="274" y="-102.4" font-family="Times,serif" font-size="14.00" fill="#000000">0</text>
<polygon fill="none" stroke="#000000" points="296,-96 296,-118 357,-118 357,-96 296,-96"/>
<text text-anchor="start" x="298.9039" y="-102.4" font-family="Times,serif" font-size="14.00" fill="#000000">Alice, red</text>
</g>
<!-- buckets&#45;&gt;vec1 -->
<g id="edge3" class="edge">
<title>buckets:c&#45;&gt;vec1:from_buckets</title>
<path fill="none" stroke="#000000" d="M187.5,-129C187.5,-129 219.2852,-129 248.7361,-129"/>
<polygon fill="#000000" stroke="#000000" points="249,-132.5001 259,-129 249,-125.5001 249,-132.5001"/>
</g>
<!-- vec2 -->
<g id="node5" class="node">
<title>vec2</title>
<polyline fill="none" stroke="#000000" points="257,-48 359,-48 "/>
<text text-anchor="start" x="266.6706" y="-54.4" font-family="Times,serif" font-size="14.00" fill="#000000">Bucket&lt;K, V&gt;</text>
<polygon fill="none" stroke="#000000" points="257,-26 257,-48 294,-48 294,-26 257,-26"/>
<text text-anchor="start" x="259.9474" y="-32.4" font-family="Times,serif" font-size="14.00" fill="#000000">index</text>
<polygon fill="none" stroke="#000000" points="294,-26 294,-48 359,-48 359,-26 294,-26"/>
<text text-anchor="start" x="315.6171" y="-32.4" font-family="Times,serif" font-size="14.00" fill="#000000">pair</text>
<polygon fill="none" stroke="#000000" points="257,-4 257,-26 294,-26 294,-4 257,-4"/>
<text text-anchor="start" x="272" y="-10.4" font-family="Times,serif" font-size="14.00" fill="#000000">0</text>
<polygon fill="none" stroke="#000000" points="294,-4 294,-26 359,-26 359,-4 294,-4"/>
<text text-anchor="start" x="296.9565" y="-10.4" font-family="Times,serif" font-size="14.00" fill="#000000">Eve, black</text>
</g>
<!-- buckets&#45;&gt;vec2 -->
<g id="edge4" class="edge">
<title>buckets:c&#45;&gt;vec2:from_buckets</title>
<path fill="none" stroke="#000000" d="M187.5,-107C187.5,-107 209.3065,-47.5103 247.0613,-38.215"/>
<polygon fill="#000000" stroke="#000000" points="247.4986,-41.6877 257,-37 246.6492,-34.7394 247.4986,-41.6877"/>
</g>
</g>
</svg>
