
<svg width="200px" height="200px" viewBox="0 0 200 193" version="1.1" xmlns="http://www.w3.org/2000/svg" xmlns:xlink="http://www.w3.org/1999/xlink">
    <!-- Generator: Sketch 51.3 (57544) - http://www.bohemiancoding.com/sketch -->
    <desc>Created with Sketch.</desc>
    <defs></defs>
    <g id="Page-1" stroke="none" stroke-width="1" fill="none" fill-rule="evenodd">
        <g id="favicon" transform="translate(-200.000000, -35.000000)" fill-rule="nonzero">
            <g id="Group" transform="translate(200.000000, 35.000000)">
                <path d="M171.544211,83 C170.716314,83 170.049813,83.6665 170.049813,84.4943966 L170.049813,88.2926522 C168.116769,88.7725238 166.256225,89.5448666 164.508095,90.596515 L161.830635,87.9190542 C161.245225,87.3336434 160.298985,87.3336434 159.713574,87.9190542 L154.856787,92.7758401 C154.271377,93.3612524 154.271377,94.3074901 154.856787,94.8929025 L157.534247,97.570364 C156.49083,99.3133877 155.76732,101.195028 155.292653,103.11208 L151.494396,103.11208 C150.666501,103.11208 150,103.77858 150,104.606471 L150,111.455788 C150,112.283685 150.666501,112.950185 151.494396,112.950185 L155.230386,112.950185 C155.710178,114.884952 156.481716,116.742302 157.534247,118.491903 L154.856787,121.169364 C154.271377,121.754771 154.271377,122.701014 154.856787,123.286428 L159.713574,128.143212 C160.298985,128.728622 161.245225,128.728622 161.830635,128.143212 L164.508095,125.465753 C166.263864,126.524689 168.11643,127.2273 170.049813,127.707347 L170.049813,131.505603 C170.049813,132.3335 170.716314,133 171.544211,133 L178.393528,133 C179.221419,133 179.887919,132.3335 179.887919,131.505605 L179.887919,127.707347 C181.825434,127.229862 183.67727,126.517086 185.429638,125.465753 L188.107098,128.143212 C188.692511,128.728622 189.638748,128.728622 190.224161,128.143212 L195.080947,123.286428 C195.666356,122.701014 195.666356,121.754771 195.080947,121.169364 L192.403486,118.491903 C193.457317,116.745468 194.226372,114.87321 194.707347,112.950187 L198.505605,112.950187 C199.3335,112.950185 200,112.283685 200,111.455788 L200,104.606477 C200,103.77858 199.3335,103.11208 198.505605,103.11208 L194.707347,103.11208 C194.23037,101.1907 193.445366,99.3094611 192.403486,97.570364 L195.080947,94.8929025 C195.666356,94.3074901 195.666356,93.3612524 195.080947,92.7758401 L190.224161,87.9190542 C189.638748,87.3336434 188.692511,87.3336434 188.107098,87.9190542 L185.429638,90.596515 C183.679889,89.546272 181.813453,88.7691272 179.887919,88.2926522 L179.887919,84.4943966 C179.887919,83.6665 179.221419,83 178.393528,83 L171.544211,83 Z M175.218871,99.0035239 C177.648217,98.9388851 180.125701,99.7623221 182.028422,101.570837 C185.833861,105.187866 186.01194,111.219339 182.403259,115.03358 C178.803483,118.838403 172.780174,119.004075 168.971578,115.409284 C165.16614,111.792254 164.988059,105.760781 168.596741,101.94654 C170.401085,100.039422 172.789527,99.068146 175.218871,99.0035256 L175.218871,99.0035239 Z" id="gear" fill="#7EC4B8" transform="translate(175.000000, 108.000000) scale(1, -1) rotate(180.000000) translate(-175.000000, -108.000000) "></path>
                <path d="M117.544211,137 C116.716314,137 116.049813,137.6665 116.049813,138.494397 L116.049813,142.292652 C114.116769,142.772524 112.256225,143.544867 110.508095,144.596515 L107.830635,141.919054 C107.245225,141.333643 106.298985,141.333643 105.713574,141.919054 L100.856787,146.77584 C100.271377,147.361252 100.271377,148.30749 100.856787,148.892902 L103.534247,151.570364 C102.49083,153.313388 101.76732,155.195028 101.292653,157.11208 L97.494396,157.11208 C96.6665006,157.11208 96,157.77858 96,158.606471 L96,165.455788 C96,166.283685 96.6665006,166.950185 97.494396,166.950185 L101.230386,166.950185 C101.710178,168.884952 102.481716,170.742302 103.534247,172.491903 L100.856787,175.169364 C100.271377,175.754771 100.271377,176.701014 100.856787,177.286428 L105.713574,182.143212 C106.298985,182.728622 107.245225,182.728622 107.830635,182.143212 L110.508095,179.465753 C112.263864,180.524689 114.11643,181.2273 116.049813,181.707347 L116.049813,185.505603 C116.049813,186.3335 116.716314,187 117.544211,187 L124.393528,187 C125.221419,187 125.887919,186.3335 125.887919,185.505605 L125.887919,181.707347 C127.825434,181.229862 129.67727,180.517086 131.429638,179.465753 L134.107098,182.143212 C134.692511,182.728622 135.638748,182.728622 136.224161,182.143212 L141.080947,177.286428 C141.666356,176.701014 141.666356,175.754771 141.080947,175.169364 L138.403486,172.491903 C139.457317,170.745468 140.226372,168.87321 140.707347,166.950187 L144.505605,166.950187 C145.3335,166.950185 146,166.283685 146,165.455788 L146,158.606477 C146,157.77858 145.3335,157.11208 144.505605,157.11208 L140.707347,157.11208 C140.23037,155.1907 139.445366,153.309461 138.403486,151.570364 L141.080947,148.892902 C141.666356,148.30749 141.666356,147.361252 141.080947,146.77584 L136.224161,141.919054 C135.638748,141.333643 134.692511,141.333643 134.107098,141.919054 L131.429638,144.596515 C129.679889,143.546272 127.813453,142.769127 125.887919,142.292652 L125.887919,138.494397 C125.887919,137.6665 125.221419,137 124.393528,137 L117.544211,137 Z M120.7198,152.566625 C123.141119,152.502348 125.610416,153.32117 127.50685,155.11955 C131.299714,158.71631 131.477205,164.713983 127.880448,168.506849 C124.292567,172.290351 118.289161,172.455095 114.49315,168.880448 C110.700286,165.283688 110.522793,159.286014 114.119552,155.493149 C115.917933,153.596717 118.298483,152.630885 120.7198,152.566626 L120.7198,152.566625 Z" id="gear" fill="#4FA4D8" transform="translate(121.000000, 162.000000) scale(1, -1) rotate(180.000000) translate(-121.000000, -162.000000) "></path>
                <path d="M57.0884219,1.88398664e-17 C55.4326281,1.88398664e-17 54.099625,1.33300004 54.099625,2.98879324 L54.099625,10.5853044 C50.2335375,11.5450476 46.51245,13.0897333 43.0161894,15.1930299 L37.6612703,9.83810846 C36.4904494,8.66728685 34.5979691,8.66728685 33.4271478,9.83810846 L23.7135737,19.5516801 C22.5427531,20.7225048 22.5427531,22.6149802 23.7135737,23.785805 L29.0684931,29.140728 C26.9816597,32.6267753 25.5346409,36.3900567 24.5853056,40.22416 L16.988792,40.22416 C15.3330013,40.22416 14,41.5571601 14,43.2129414 L14,56.9115763 C14,58.5673702 15.3330013,59.9003702 16.988792,59.9003702 L24.4607725,59.9003702 C25.4203569,63.7699048 26.9634325,67.4846049 29.0684931,70.983805 L23.7135737,76.3387271 C22.5427531,77.5095428 22.5427531,79.4020273 23.7135737,80.5728554 L33.4271478,90.2864246 C34.5979694,91.4572434 36.4904494,91.4572434 37.6612703,90.2864246 L43.0161894,84.9315056 C46.5277281,87.0493776 50.2328594,88.4545995 54.099625,89.4146933 L54.099625,97.0112061 C54.099625,98.6669999 55.4326281,100 57.0884219,100 L70.7870562,100 C72.4428375,100 73.7758375,98.6669999 73.7758375,97.0112093 L73.7758375,89.4146933 C77.6508687,88.4597245 81.3545406,87.0341713 84.859275,84.9315056 L90.2141969,90.2864246 C91.3850219,91.4572434 93.2774969,91.4572434 94.4483219,90.2864246 L104.161894,80.5728554 C105.332712,79.4020273 105.332712,77.5095428 104.161894,76.3387271 L98.8069719,70.983805 C100.914634,67.4909362 102.452744,63.7464204 103.414694,59.9003733 L111.011209,59.9003733 C112.667,59.9003702 114,58.5673702 114,56.9115763 L114,43.2129539 C114,41.5571601 112.667,40.22416 111.011209,40.22416 L103.414694,40.22416 C102.460741,36.3814005 100.890731,32.6189222 98.8069719,29.140728 L104.161894,23.785805 C105.332712,22.6149802 105.332712,20.7225048 104.161894,19.5516801 L94.4483219,9.83810846 C93.2774969,8.66728685 91.3850219,8.66728685 90.2141969,9.83810846 L84.859275,15.1930299 C81.3597781,13.0925439 77.6269062,11.5382545 73.7758375,10.5853044 L73.7758375,2.98879324 C73.7758375,1.33300004 72.4428375,0 70.7870562,0 L57.0884219,1.88398664e-17 Z M63.4396,31.133249 C68.2822375,31.0046959 73.2208312,32.642341 77.0137,36.2391005 C84.5994281,43.4326195 84.9544094,55.4279669 77.7608969,63.0136985 C70.5851344,70.5807019 58.5783219,70.9101894 50.9863,63.7608954 C43.4005728,56.5673763 43.0455869,44.572029 50.2391031,36.9862974 C53.8358656,33.1934347 58.5969656,31.261769 63.4396,31.1332525 L63.4396,31.133249 Z" id="gear" fill="#4FA4D8"></path>
                <path d="M34.4707375,113 C33.1461025,113 32.0797,114.0664 32.0797,115.391035 L32.0797,121.468244 C28.98683,122.236038 26.00996,123.471787 23.2129515,125.154424 L18.9290162,120.870487 C17.9923595,119.933829 16.4783752,119.933829 15.5417182,120.870487 L7.770859,128.641344 C6.8342025,129.578004 6.8342025,131.091984 7.770859,132.028644 L12.0547945,136.312582 C10.3853277,139.10142 9.22771275,142.112045 8.4682445,145.179328 L2.39103362,145.179328 C1.06640102,145.179328 0,146.245728 0,147.570353 L0,158.529261 C0,159.853896 1.06640102,160.920296 2.39103362,160.920296 L8.368618,160.920296 C9.1362855,164.015924 10.370746,166.987684 12.0547945,169.787044 L7.770859,174.070982 C6.8342025,175.007634 6.8342025,176.521622 7.770859,177.458284 L15.5417182,185.22914 C16.4783755,186.165795 17.9923595,186.165795 18.9290162,185.22914 L23.2129515,180.945205 C26.0221825,182.639502 28.9862875,183.76368 32.0797,184.531755 L32.0797,190.608965 C32.0797,191.9336 33.1461025,193 34.4707375,193 L45.429645,193 C46.75427,193 47.82067,191.9336 47.82067,190.608967 L47.82067,184.531755 C50.920695,183.76778 53.8836325,182.627337 56.68742,180.945205 L60.9713575,185.22914 C61.9080175,186.165795 63.4219975,186.165795 64.3586575,185.22914 L72.129515,177.458284 C73.06617,176.521622 73.06617,175.007634 72.129515,174.070982 L67.8455775,169.787044 C69.5317075,166.992749 70.762195,163.997136 71.531755,160.920299 L77.6089675,160.920299 C78.9336,160.920296 80,159.853896 80,158.529261 L80,147.570363 C80,146.245728 78.9336,145.179328 77.6089675,145.179328 L71.531755,145.179328 C70.7685925,142.10512 69.512585,139.095138 67.8455775,136.312582 L72.129515,132.028644 C73.06617,131.091984 73.06617,129.578004 72.129515,128.641344 L64.3586575,120.870487 C63.4219975,119.933829 61.9080175,119.933829 60.9713575,120.870487 L56.68742,125.154424 C53.8878225,123.474035 50.901525,122.230604 47.82067,121.468244 L47.82067,115.391035 C47.82067,114.0664 46.75427,113 45.429645,113 L34.4707375,113 Z M39.55168,137.906599 C43.42579,137.803757 47.376665,139.113873 50.41096,141.99128 C56.4795425,147.746096 56.7635275,157.342374 51.0087175,163.410959 C45.2681075,169.464562 35.6626575,169.728152 29.58904,164.008716 C23.5204582,158.253901 23.2364695,148.657623 28.9912825,142.589038 C31.8686925,139.554748 35.6775725,138.009415 39.55168,137.906602 L39.55168,137.906599 Z" id="gear" fill="#7EC4B8"></path>
            </g>
        </g>
    </g>
</svg>
