
<svg width="766px" height="297px" viewBox="0 0 766 297" version="1.1" xmlns="http://www.w3.org/2000/svg" xmlns:xlink="http://www.w3.org/1999/xlink">
    <!-- Generator: Sketch 51.3 (57544) - http://www.bohemiancoding.com/sketch -->
    <desc>Created with Sketch.</desc>
    <defs>
        <path d="M454.1,139.445281 C454.030189,138.637734 453.950943,137.832074 453.864151,137.030187 L460.988679,130.384904 C461.713208,129.709432 462.037736,128.709432 461.841509,127.741508 C461.650943,126.769809 460.969811,125.969809 460.043396,125.624526 L450.935849,122.218866 C450.707547,121.430187 450.467925,120.647168 450.222642,119.867923 L455.903774,111.977357 C456.483019,111.17547 456.601887,110.132074 456.224528,109.216979 C455.84717,108.305658 455.022642,107.652828 454.04717,107.492451 L444.443396,105.930187 C444.069811,105.201885 443.681132,104.484904 443.288679,103.773583 L447.324528,94.9150925 C447.737736,94.0132057 447.65283,92.9641491 447.101887,92.1452811 C446.55283,91.3226396 445.622642,90.8415075 444.630189,90.8792434 L434.883019,91.218866 C434.379245,90.5886774 433.866038,89.9641491 433.343396,89.3509415 L435.583019,79.8566019 C435.809434,78.8924509 435.524528,77.883017 434.822642,77.183017 C434.126415,76.4849038 433.115094,76.1962245 432.150943,76.4226396 L422.658491,78.6603755 C422.043396,78.1396208 421.418868,77.6245264 420.786792,77.1207528 L421.128302,67.373583 C421.166038,66.3867906 420.684906,65.4490547 419.862264,64.9018849 C419.037736,64.3509415 417.99434,64.2679226 417.094338,64.6773566 L408.237734,68.7150925 C407.52264,68.3226396 406.805658,67.9339604 406.08113,67.5584887 L404.515092,57.9528283 C404.356602,56.9792434 403.703772,56.1528283 402.790564,55.7754698 C401.879243,55.3962245 400.83396,55.518866 400.032074,56.0962245 L392.135847,61.7773566 C391.358489,61.5301868 390.577357,61.2924509 389.788677,61.0660358 L386.383017,51.9566019 C386.037734,51.0283 385.237734,50.3471679 384.266036,50.1547151 C383.296225,49.9641491 382.298111,50.2867906 381.624526,51.0075453 L374.979243,58.137734 C374.177357,58.0490547 373.369809,57.9679226 372.564149,57.9018849 L367.432074,49.6094321 C366.913206,48.7698094 365.994338,48.2584887 365.005658,48.2584887 C364.016979,48.2584887 363.098111,48.7698094 362.58113,49.6094321 L357.449055,57.9018849 C356.641508,57.9679226 355.83396,58.0490547 355.032074,58.137734 L348.384904,51.0075453 C347.711319,50.2867906 346.711319,49.9641491 345.743394,50.1547151 C344.771696,50.3490547 343.971696,51.0283 343.626413,51.9566019 L340.220753,61.0660358 C339.432074,61.2924509 338.650942,61.5320736 337.871696,61.7773566 L329.977357,56.0962245 C329.17547,55.5169792 328.130187,55.3943377 327.216979,55.7754698 C326.305658,56.1528283 325.650942,56.9792434 325.492451,57.9528283 L323.926413,67.5584887 C323.201885,67.9339604 322.484904,68.3207528 321.769809,68.7150925 L312.913206,64.6773566 C312.013206,64.2660358 310.964149,64.3509415 310.145281,64.9018849 C309.32264,65.4490547 308.841508,66.3867906 308.879243,67.373583 L309.218866,77.1207528 C308.588677,77.6245264 307.964149,78.1396208 307.347168,78.6603755 L297.854715,76.4226396 C296.890564,76.1981113 295.879243,76.4849038 295.18113,77.183017 C294.479243,77.883017 294.194338,78.8924509 294.420753,79.8566019 L296.656602,89.3509415 C296.137734,89.9660358 295.624526,90.5886774 295.120753,91.218866 L285.373583,90.8792434 C284.390564,90.8509415 283.450942,91.3226396 282.901885,92.1452811 C282.350942,92.9641491 282.267923,94.0132057 282.677357,94.9150925 L286.715092,103.773583 C286.32264,104.484904 285.93396,105.201885 285.558489,105.930187 L275.954715,107.492451 C274.979243,107.650942 274.156602,108.303772 273.777357,109.216979 C273.399998,110.132074 273.52264,111.17547 274.098111,111.977357 L279.779243,119.867923 C279.532074,120.647168 279.292451,121.430187 279.066036,122.218866 L269.956602,125.624526 C269.032074,125.969809 268.350942,126.769809 268.158489,127.741508 C267.966036,128.711319 268.288677,129.709432 269.011319,130.384904 L276.137734,137.030187 C276.049055,137.832074 275.969809,138.639621 275.901885,139.445281 L267.611319,144.577357 C266.771696,145.096225 266.260375,146.013206 266.260375,147.003772 C266.260375,147.994338 266.771696,148.911319 267.611319,149.4283 L275.901885,154.560375 C275.969809,155.367923 276.049055,156.173583 276.137734,156.97547 L269.011319,163.62264 C268.288677,164.296225 267.966036,165.296225 268.158489,166.264149 C268.350942,167.235847 269.032074,168.03396 269.956602,168.38113 L279.066036,171.786791 C279.292451,172.57547 279.532074,173.358489 279.779243,174.137734 L274.098111,182.030187 C273.520753,182.83396 273.398111,183.877357 273.777357,184.788677 C274.156602,185.703772 274.98113,186.356602 275.956602,186.513206 L285.558489,188.07547 C285.93396,188.803772 286.318866,189.520753 286.715092,190.235847 L282.677357,199.090564 C282.266036,199.990566 282.350942,201.037736 282.901885,201.860377 C283.452828,202.684906 284.390564,203.166038 285.373583,203.126415 L295.116979,202.784906 C295.624526,203.418868 296.135847,204.039623 296.656602,204.656604 L294.420753,214.15283 C294.194338,215.115094 294.479243,216.120755 295.18113,216.820755 C295.877357,217.524528 296.890564,217.80566 297.854715,217.579245 L307.347168,215.343396 C307.964149,215.867925 308.588677,216.377358 309.218866,216.879245 L308.879243,226.628302 C308.841508,227.615094 309.32264,228.550943 310.145281,229.101887 C310.964149,229.650943 312.013206,229.733962 312.913206,229.322642 L321.769809,225.286792 C322.483017,225.683019 323.199998,226.067925 323.926413,226.443396 L325.492451,236.043396 C325.650942,237.020755 326.303772,237.84717 327.216979,238.222642 C328.1283,238.601887 329.17547,238.479245 329.977357,237.903774 L337.867923,232.218868 C338.647168,232.466038 339.430187,232.707547 340.218866,232.933962 L343.624526,242.039623 C343.969809,242.964151 344.769809,243.649057 345.741508,243.837736 C346.711319,244.033962 347.709432,243.709434 348.383017,242.984906 L355.030187,235.858491 C355.832074,235.950943 356.639621,236.028302 357.447168,236.1 L362.579243,244.390566 C363.096225,245.226415 364.015092,245.741509 365.003772,245.741509 C365.992451,245.741509 366.911319,245.228302 367.430187,244.390566 L372.562262,236.1 C373.369809,236.028302 374.17547,235.950943 374.977357,235.858491 L381.62264,242.984906 C382.296225,243.709434 383.296225,244.033962 384.264149,243.837736 C385.235847,243.64717 386.035847,242.964151 386.38113,242.039623 L389.786791,232.933962 C390.57547,232.707547 391.358489,232.466038 392.137734,232.218868 L400.030187,237.903774 C400.832074,238.479245 401.877357,238.601887 402.788677,238.222642 C403.701885,237.84717 404.354715,237.018868 404.513206,236.043396 L406.079243,226.443396 C406.803772,226.067925 407.520753,225.677358 408.235847,225.286792 L417.092451,229.322642 C417.992453,229.733962 419.039623,229.650943 419.860377,229.101887 C420.683019,228.550943 421.162264,227.616981 421.126415,226.628302 L420.786792,216.879245 C421.416981,216.375472 422.041509,215.867925 422.656604,215.343396 L432.149057,217.579245 C433.113208,217.80566 434.124528,217.524528 434.820755,216.820755 C435.522642,216.120755 435.807547,215.115094 435.581132,214.15283 L433.345283,204.656604 C433.866038,204.039623 434.379245,203.418868 434.881132,202.784906 L444.628302,203.126415 C445.611321,203.166038 446.550943,202.684906 447.1,201.860377 C447.650943,201.037736 447.735849,199.990566 447.322642,199.090564 L443.286792,190.235847 C443.681132,189.520753 444.067925,188.803772 444.441509,188.07547 L454.045283,186.513206 C455.022642,186.356602 455.845283,185.703772 456.222642,184.788677 C456.6,183.877357 456.481132,182.83396 455.901887,182.030187 L450.220755,174.137734 C450.466038,173.358489 450.70566,172.57547 450.933962,171.786791 L460.041509,168.38113 C460.967925,168.03396 461.650943,167.235847 461.839623,166.264149 C462.035849,165.294338 461.711321,164.296225 460.986792,163.62264 L453.862264,156.97547 C453.949057,156.173583 454.028302,155.366036 454.098113,154.560375 L462.388679,149.4283 C463.228302,148.911319 463.739623,147.992451 463.739623,147.003772 C463.739623,146.015092 463.230189,145.096225 462.390566,144.577357 L454.1,139.445281 Z M406.901885,213.35283 C403.735847,212.669811 401.72264,209.549057 402.401885,206.373585 C403.079243,203.201887 406.198111,201.183019 409.362262,201.866038 C412.5283,202.543396 414.545281,205.669811 413.866036,208.839623 C413.186791,212.009434 410.066036,214.030189 406.901885,213.35283 Z M397.735847,198.413206 L394.792451,212.149057 C385.709432,216.271698 375.62264,218.562264 364.999998,218.562264 C354.13396,218.562264 343.8283,216.158491 334.583017,211.860377 L331.641508,198.124526 C331.02264,195.23396 328.18113,193.392451 325.294338,194.013206 L313.167923,196.616979 C310.916979,194.299998 308.82264,191.832074 306.898111,189.226413 L365.901885,189.226413 C366.569809,189.226413 367.015092,189.105658 367.015092,188.498111 L367.015092,167.626413 C367.015092,167.018866 366.569809,166.898111 365.901885,166.898111 L348.645281,166.898111 L348.645281,153.667923 L367.309432,153.667923 C369.013206,153.667923 376.418866,154.154715 378.786791,163.620753 C379.5283,166.532074 381.156602,176.001885 382.269809,179.03396 C383.379243,182.43396 387.896225,189.226413 392.709432,189.226413 L422.111321,189.226413 C422.445283,189.226413 422.801887,189.188677 423.177358,189.120753 C421.137736,191.892451 418.9,194.515092 416.490564,196.966036 L404.084904,194.299998 C401.196225,193.68113 398.354715,195.518866 397.735847,198.413206 Z M322.477357,213.066038 C319.311319,213.749057 316.194338,211.730189 315.513206,208.558491 C314.835847,205.381132 316.849055,202.262264 320.015092,201.579245 C323.18113,200.901887 326.299998,202.920755 326.979243,206.092453 C327.656602,209.262264 325.641508,212.386792 322.477357,213.066038 Z M300.094338,122.301885 C301.407545,125.266036 300.071696,128.739621 297.111319,130.050942 C294.150942,131.366036 290.686791,130.0283 289.373583,127.062262 C288.060375,124.096225 289.396225,120.6283 292.356602,119.313206 C295.318866,117.999998 298.78113,119.335847 300.094338,122.301885 Z M305.847168,132.996225 C308.545281,131.798111 309.764149,128.635847 308.566036,125.932074 L305.964149,120.049055 L316.196225,120.049055 L316.196225,166.169809 L295.552828,166.169809 C293.762262,159.87547 292.801885,153.232074 292.801885,146.366036 C292.801885,143.745281 292.943394,141.154715 293.215092,138.609432 L305.847168,132.996225 Z M348.649055,120.535847 L373.015092,120.535847 C374.273583,120.535847 381.901885,121.990564 381.901885,127.694338 C381.901885,132.430187 376.050942,134.1283 371.239621,134.1283 L348.649055,134.1283 L348.649055,120.535847 Z M437.2,146.366036 C437.2,148.169809 437.133962,149.954715 437.001887,151.726413 L429.59434,151.726413 C428.85283,151.726413 428.554717,152.213206 428.554717,152.939621 L428.554717,156.341508 C428.554717,164.349055 424.039623,166.090564 420.083019,166.53396 C416.315092,166.958489 412.137734,164.956602 411.62264,162.650942 C409.399998,150.149055 405.696225,147.479243 399.847168,142.866036 C407.105658,138.256602 414.658489,131.456602 414.658489,122.354715 C414.658489,112.526413 407.920753,106.335847 403.3283,103.299998 C396.884904,99.0528283 389.750942,98.2018849 387.826413,98.2018849 L311.216979,98.2018849 C321.605658,86.6075453 335.684904,78.3943377 351.609432,75.4056585 L360.639621,84.8792434 C362.68113,87.0169792 366.062262,87.0962245 368.198111,85.0528283 L378.301885,75.3886774 C399.473583,79.3301868 417.398111,92.5094321 427.728302,110.590564 L420.811321,126.213206 C419.616981,128.916979 420.835849,132.079243 423.532075,133.277357 L436.849057,139.192451 C437.079245,141.556602 437.2,143.945281 437.2,146.366036 Z M368.93396,67.537734 C371.169809,69.8867906 371.084904,73.6018849 368.739621,75.8415075 C366.399998,78.083017 362.688677,77.9962245 360.449055,75.6490547 C358.215092,73.3037717 358.299998,69.5886774 360.643394,67.3471679 C362.983017,65.1056585 366.694338,65.1943377 368.93396,67.537734 Z M437.020755,119.599998 C439.981132,120.913206 441.316981,124.384904 440.003774,127.349055 C438.692453,130.315092 435.228302,131.652828 432.266038,130.337734 C429.309434,129.024526 427.973585,125.554715 429.284906,122.586791 C430.596226,119.62264 434.060377,118.284904 437.020755,119.599998 Z" id="path-1"></path>
        <filter x="-1.0%" y="-1.0%" width="102.0%" height="102.0%" filterUnits="objectBoundingBox" id="filter-2">
            <feGaussianBlur stdDeviation="1.5" in="SourceAlpha" result="shadowBlurInner1"></feGaussianBlur>
            <feOffset dx="0" dy="1" in="shadowBlurInner1" result="shadowOffsetInner1"></feOffset>
            <feComposite in="shadowOffsetInner1" in2="SourceAlpha" operator="arithmetic" k2="-1" k3="1" result="shadowInnerInner1"></feComposite>
            <feColorMatrix values="0 0 0 0 0   0 0 0 0 0   0 0 0 0 0  0 0 0 0.5 0" type="matrix" in="shadowInnerInner1"></feColorMatrix>
        </filter>
    </defs>
    <g id="Page-1" stroke="none" stroke-width="1" fill="none" fill-rule="evenodd">
        <g id="play/ic_launcher_APP" transform="translate(-15.000000, -35.000000)">
            <g id="Group" transform="translate(16.000000, 35.000000)">
                <g id="rust" fill-rule="nonzero">
                    <use fill="#000000" xlink:href="#path-1"></use>
                    <use fill="black" fill-opacity="1" filter="url(#filter-2)" xlink:href="#path-1"></use>
                </g>
                <path d="M440.509084,218.313708 L440.509084,200.694913" id="Line" stroke="#000000" stroke-width="10" fill="#D8D8D8" fill-rule="nonzero" stroke-linecap="round" stroke-linejoin="bevel" transform="translate(440.778175, 209.778175) scale(1, -1) rotate(225.000000) translate(-440.778175, -209.778175) "></path>
                <path d="M456.071068,235.071068 L441.928932,220.928932" id="Line" stroke="#000000" stroke-width="10" fill="#D8D8D8" fill-rule="nonzero" stroke-linecap="round" stroke-linejoin="bevel" transform="translate(449.000000, 228.000000) scale(-1, 1) rotate(-135.000000) translate(-449.000000, -228.000000) "></path>
                <path d="M449.5,218.25 L706,218.25" id="Line" stroke="#000000" stroke-width="10" stroke-linecap="round"></path>
                <path d="M736.544211,193 C735.716314,193 735.049813,193.6665 735.049813,194.494397 L735.049813,198.292652 C733.116769,198.772524 731.256225,199.544867 729.508095,200.596515 L726.830635,197.919054 C726.245225,197.333643 725.298985,197.333643 724.713574,197.919054 L719.856787,202.77584 C719.271377,203.361252 719.271377,204.30749 719.856787,204.892902 L722.534247,207.570364 C721.49083,209.313388 720.76732,211.195028 720.292653,213.11208 L716.494396,213.11208 C715.666501,213.11208 715,213.77858 715,214.606471 L715,221.455788 C715,222.283685 715.666501,222.950185 716.494396,222.950185 L720.230386,222.950185 C720.710178,224.884952 721.481716,226.742302 722.534247,228.491903 L719.856787,231.169364 C719.271377,231.754771 719.271377,232.701014 719.856787,233.286428 L724.713574,238.143212 C725.298985,238.728622 726.245225,238.728622 726.830635,238.143212 L729.508095,235.465753 C731.263864,236.524689 733.11643,237.2273 735.049813,237.707347 L735.049813,241.505603 C735.049813,242.3335 735.716314,243 736.544211,243 L743.393528,243 C744.221419,243 744.887919,242.3335 744.887919,241.505605 L744.887919,237.707347 C746.825434,237.229862 748.67727,236.517086 750.429638,235.465753 L753.107098,238.143212 C753.692511,238.728622 754.638748,238.728622 755.224161,238.143212 L760.080947,233.286428 C760.666356,232.701014 760.666356,231.754771 760.080947,231.169364 L757.403486,228.491903 C758.457317,226.745468 759.226372,224.87321 759.707347,222.950187 L763.505605,222.950187 C764.3335,222.950185 765,222.283685 765,221.455788 L765,214.606477 C765,213.77858 764.3335,213.11208 763.505605,213.11208 L759.707347,213.11208 C759.23037,211.1907 758.445366,209.309461 757.403486,207.570364 L760.080947,204.892902 C760.666356,204.30749 760.666356,203.361252 760.080947,202.77584 L755.224161,197.919054 C754.638748,197.333643 753.692511,197.333643 753.107098,197.919054 L750.429638,200.596515 C748.679889,199.546272 746.813453,198.769127 744.887919,198.292652 L744.887919,194.494397 C744.887919,193.6665 744.221419,193 743.393528,193 L736.544211,193 Z M740.218871,209.003524 C742.648217,208.938885 745.125701,209.762322 747.028422,211.570837 C750.833861,215.187866 751.01194,221.219339 747.403259,225.03358 C743.803483,228.838403 737.780174,229.004075 733.971578,225.409284 C730.16614,221.792254 729.988059,215.760781 733.596741,211.94654 C735.401085,210.039422 737.789527,209.068146 740.218871,209.003526 L740.218871,209.003524 Z" id="gear" fill="#7EC4B8" fill-rule="nonzero" transform="translate(740.000000, 218.000000) scale(1, -1) rotate(180.000000) translate(-740.000000, -218.000000) "></path>
                <path d="M445.544211,247 C444.716314,247 444.049813,247.6665 444.049813,248.494397 L444.049813,252.292652 C442.116769,252.772524 440.256225,253.544867 438.508095,254.596515 L435.830635,251.919054 C435.245225,251.333643 434.298985,251.333643 433.713574,251.919054 L428.856787,256.77584 C428.271377,257.361252 428.271377,258.30749 428.856787,258.892902 L431.534247,261.570364 C430.49083,263.313388 429.76732,265.195028 429.292653,267.11208 L425.494396,267.11208 C424.666501,267.11208 424,267.77858 424,268.606471 L424,275.455788 C424,276.283685 424.666501,276.950185 425.494396,276.950185 L429.230386,276.950185 C429.710178,278.884952 430.481716,280.742302 431.534247,282.491903 L428.856787,285.169364 C428.271377,285.754771 428.271377,286.701014 428.856787,287.286428 L433.713574,292.143212 C434.298985,292.728622 435.245225,292.728622 435.830635,292.143212 L438.508095,289.465753 C440.263864,290.524689 442.11643,291.2273 444.049813,291.707347 L444.049813,295.505603 C444.049813,296.3335 444.716314,297 445.544211,297 L452.393528,297 C453.221419,297 453.887919,296.3335 453.887919,295.505605 L453.887919,291.707347 C455.825434,291.229862 457.67727,290.517086 459.429638,289.465753 L462.107098,292.143212 C462.692511,292.728622 463.638748,292.728622 464.224161,292.143212 L469.080947,287.286428 C469.666356,286.701014 469.666356,285.754771 469.080947,285.169364 L466.403486,282.491903 C467.457317,280.745468 468.226372,278.87321 468.707347,276.950187 L472.505605,276.950187 C473.3335,276.950185 474,276.283685 474,275.455788 L474,268.606477 C474,267.77858 473.3335,267.11208 472.505605,267.11208 L468.707347,267.11208 C468.23037,265.1907 467.445366,263.309461 466.403486,261.570364 L469.080947,258.892902 C469.666356,258.30749 469.666356,257.361252 469.080947,256.77584 L464.224161,251.919054 C463.638748,251.333643 462.692511,251.333643 462.107098,251.919054 L459.429638,254.596515 C457.679889,253.546272 455.813453,252.769127 453.887919,252.292652 L453.887919,248.494397 C453.887919,247.6665 453.221419,247 452.393528,247 L445.544211,247 Z M448.7198,262.566625 C451.141119,262.502348 453.610416,263.32117 455.50685,265.11955 C459.299714,268.71631 459.477205,274.713983 455.880448,278.506849 C452.292567,282.290351 446.289161,282.455095 442.49315,278.880448 C438.700286,275.283688 438.522793,269.286014 442.119552,265.493149 C443.917933,263.596717 446.298483,262.630885 448.7198,262.566626 L448.7198,262.566625 Z" id="gear" fill="#4FA4D8" fill-rule="nonzero" transform="translate(449.000000, 272.000000) scale(1, -1) rotate(180.000000) translate(-449.000000, -272.000000) "></path>
                <path d="M241.088422,1.88398664e-17 C239.432628,1.88398664e-17 238.099625,1.33300004 238.099625,2.98879324 L238.099625,10.5853044 C234.233537,11.5450476 230.51245,13.0897333 227.016189,15.1930299 L221.66127,9.83810846 C220.490449,8.66728685 218.597969,8.66728685 217.427148,9.83810846 L207.713574,19.5516801 C206.542753,20.7225048 206.542753,22.6149802 207.713574,23.785805 L213.068493,29.140728 C210.98166,32.6267753 209.534641,36.3900567 208.585306,40.22416 L200.988792,40.22416 C199.333001,40.22416 198,41.5571601 198,43.2129414 L198,56.9115763 C198,58.5673702 199.333001,59.9003702 200.988792,59.9003702 L208.460772,59.9003702 C209.420357,63.7699048 210.963432,67.4846049 213.068493,70.983805 L207.713574,76.3387271 C206.542753,77.5095428 206.542753,79.4020273 207.713574,80.5728554 L217.427148,90.2864246 C218.597969,91.4572434 220.490449,91.4572434 221.66127,90.2864246 L227.016189,84.9315056 C230.527728,87.0493776 234.232859,88.4545995 238.099625,89.4146933 L238.099625,97.0112061 C238.099625,98.6669999 239.432628,100 241.088422,100 L254.787056,100 C256.442837,100 257.775837,98.6669999 257.775837,97.0112093 L257.775837,89.4146933 C261.650869,88.4597245 265.354541,87.0341713 268.859275,84.9315056 L274.214197,90.2864246 C275.385022,91.4572434 277.277497,91.4572434 278.448322,90.2864246 L288.161894,80.5728554 C289.332712,79.4020273 289.332712,77.5095428 288.161894,76.3387271 L282.806972,70.983805 C284.914634,67.4909362 286.452744,63.7464204 287.414694,59.9003733 L295.011209,59.9003733 C296.667,59.9003702 298,58.5673702 298,56.9115763 L298,43.2129539 C298,41.5571601 296.667,40.22416 295.011209,40.22416 L287.414694,40.22416 C286.460741,36.3814005 284.890731,32.6189222 282.806972,29.140728 L288.161894,23.785805 C289.332712,22.6149802 289.332712,20.7225048 288.161894,19.5516801 L278.448322,9.83810846 C277.277497,8.66728685 275.385022,8.66728685 274.214197,9.83810846 L268.859275,15.1930299 C265.359778,13.0925439 261.626906,11.5382545 257.775837,10.5853044 L257.775837,2.98879324 C257.775837,1.33300004 256.442837,0 254.787056,0 L241.088422,1.88398664e-17 Z M247.4396,31.133249 C252.282237,31.0046959 257.220831,32.642341 261.0137,36.2391005 C268.599428,43.4326195 268.954409,55.4279669 261.760897,63.0136985 C254.585134,70.5807019 242.578322,70.9101894 234.9863,63.7608954 C227.400573,56.5673763 227.045587,44.572029 234.239103,36.9862974 C237.835866,33.1934347 242.596966,31.261769 247.4396,31.1332525 L247.4396,31.133249 Z" id="gear" fill="#4FA4D8" fill-rule="nonzero"></path>
                <path d="M218.470737,113 C217.146102,113 216.0797,114.0664 216.0797,115.391035 L216.0797,121.468244 C212.98683,122.236038 210.00996,123.471787 207.212951,125.154424 L202.929016,120.870487 C201.992359,119.933829 200.478375,119.933829 199.541718,120.870487 L191.770859,128.641344 C190.834202,129.578004 190.834202,131.091984 191.770859,132.028644 L196.054794,136.312582 C194.385328,139.10142 193.227713,142.112045 192.468244,145.179328 L186.391034,145.179328 C185.066401,145.179328 184,146.245728 184,147.570353 L184,158.529261 C184,159.853896 185.066401,160.920296 186.391034,160.920296 L192.368618,160.920296 C193.136285,164.015924 194.370746,166.987684 196.054794,169.787044 L191.770859,174.070982 C190.834202,175.007634 190.834202,176.521622 191.770859,177.458284 L199.541718,185.22914 C200.478375,186.165795 201.992359,186.165795 202.929016,185.22914 L207.212951,180.945205 C210.022182,182.639502 212.986287,183.76368 216.0797,184.531755 L216.0797,190.608965 C216.0797,191.9336 217.146102,193 218.470737,193 L229.429645,193 C230.75427,193 231.82067,191.9336 231.82067,190.608967 L231.82067,184.531755 C234.920695,183.76778 237.883632,182.627337 240.68742,180.945205 L244.971357,185.22914 C245.908017,186.165795 247.421997,186.165795 248.358657,185.22914 L256.129515,177.458284 C257.06617,176.521622 257.06617,175.007634 256.129515,174.070982 L251.845577,169.787044 C253.531707,166.992749 254.762195,163.997136 255.531755,160.920299 L261.608967,160.920299 C262.9336,160.920296 264,159.853896 264,158.529261 L264,147.570363 C264,146.245728 262.9336,145.179328 261.608967,145.179328 L255.531755,145.179328 C254.768592,142.10512 253.512585,139.095138 251.845577,136.312582 L256.129515,132.028644 C257.06617,131.091984 257.06617,129.578004 256.129515,128.641344 L248.358657,120.870487 C247.421997,119.933829 245.908017,119.933829 244.971357,120.870487 L240.68742,125.154424 C237.887822,123.474035 234.901525,122.230604 231.82067,121.468244 L231.82067,115.391035 C231.82067,114.0664 230.75427,113 229.429645,113 L218.470737,113 Z M223.55168,137.906599 C227.42579,137.803757 231.376665,139.113873 234.41096,141.99128 C240.479542,147.746096 240.763527,157.342374 235.008717,163.410959 C229.268107,169.464562 219.662657,169.728152 213.58904,164.008716 C207.520458,158.253901 207.236469,148.657623 212.991282,142.589038 C215.868692,139.554748 219.677572,138.009415 223.55168,137.906602 L223.55168,137.906599 Z" id="gear" fill="#7EC4B8" fill-rule="nonzero"></path>
                <text id="Algo" font-family="HelveticaNeue-Bold, Helvetica Neue" font-size="120" font-weight="bold" fill="#7EC4B8">
                    <tspan x="0" y="184">Alg</tspan>
                </text>
                <text id="ithm" font-family="HelveticaNeue-Bold, Helvetica Neue" font-size="120" font-weight="bold" fill="#000000">
                    <tspan x="464" y="184">ithm</tspan>
                </text>
            </g>
        </g>
    </g>
</svg>
